<?xml version="1.0" encoding="utf-8"?>
<!-- Generator: Adobe Illustrator 15.0.0, SVG Export Plug-In . SVG Version: 6.00 Build 0)  -->
<!DOCTYPE svg PUBLIC "-//W3C//DTD SVG 1.1//EN" "http://www.w3.org/Graphics/SVG/1.1/DTD/svg11.dtd">
<svg version="1.1" id="Layer_1" xmlns="http://www.w3.org/2000/svg" xmlns:xlink="http://www.w3.org/1999/xlink" x="0px" y="0px"
	 width="500px" height="500px" viewBox="0 0 500 500" enable-background="new 0 0 500 500" xml:space="preserve">
<rect fill="#6F5189" width="500" height="500"/>
<rect fill="#414042" width="500" height="194.499"/>
<rect y="306.04" fill="#414042" width="500" height="193.96"/>
<path fill="#7C42BA" d="M500,148.846c-2.094-0.735-4.588-1.305-8.431-1.305c-10.978,0-10.978-0.174-21.953-0.174
	c-10.975,0-10.975-2.556-21.95-2.556c-10.975,0-10.975,0.155-21.953,0.155c-10.976,0-10.976,8.594-21.95,8.594
	c-10.972,0-10.972-4.429-21.947-4.429c-10.975,0-10.975-6.375-21.953-6.375c-10.972,0-10.972,5.974-21.947,5.974
	c-10.975,0-10.975-3.881-21.95-3.881c-10.975,0-10.975,9.197-21.95,9.197c-10.975,0-10.975-2.326-21.947-2.326
	c-10.975,0-10.975-7.256-21.947-7.256c-10.976,0-10.976,8.528-21.95,8.528c-10.972,0-10.972-8.238-21.944-8.238
	s-10.973,4.319-21.946,4.319c-10.977,0-10.977,4.667-21.954,4.667c-10.973,0-10.973-0.698-21.945-0.698
	c-10.972,0-10.972-1.533-21.941-1.533c-10.974,0-10.974-9.311-21.949-9.311c-10.975,0-10.975,10.862-21.95,10.862
	c-10.972,0-10.972-10.287-21.945-10.287c-10.972,0-10.972,11.521-21.942,11.521c-10.972,0-10.972-2.449-21.943-2.449
	c-4.013,0-6.557-0.026-8.708-0.06v202.401c2.241-1.113,4.848-2.023,9.122-2.023c10.977,0,10.977,5.08,21.953,5.08
	c10.974,0,10.974-3.799,21.949-3.799c10.977,0,10.977,2.775,21.953,2.775c10.976,0,10.976-7.195,21.948-7.195
	c10.976,0,10.976,0.225,21.95,0.225c10.978,0,10.978-2.299,21.952-2.299c10.974,0,10.974,4.988,21.947,4.988
	c10.975,0,10.975,6.652,21.951,6.652c10.974,0,10.974-11.439,21.949-11.439c10.972,0,10.972,0.629,21.945,0.629
	c10.975,0,10.975,7.139,21.95,7.139c10.975,0,10.975-1.76,21.949-1.76c10.976,0,10.976,3.375,21.947,3.375
	s10.972-5.338,21.946-5.338c10.976,0,10.976,4.834,21.95,4.834c10.976,0,10.976-10.928,21.947-10.928s10.972,11.52,21.944,11.52
	c10.972,0,10.972-7.521,21.946-7.521c10.976,0,10.976,6.709,21.95,6.709c10.973,0,10.973-2.818,21.944-2.818
	s10.972-1.133,21.943-1.133c10.969,0,10.969,5.238,21.94,5.238c3.594,0,6.009-0.951,8.02-2.229V148.846z"/>
<g>
	<path fill="#FFFFFF" d="M93.536,71.286c14.99,0,27.143-12.154,27.143-27.143c0-14.99-12.153-27.143-27.143-27.143
		c-14.989,0-27.143,12.153-27.143,27.143C66.393,59.132,78.546,71.286,93.536,71.286z M156.532,108.087
		c-4.705-17.286-20.47-30.016-39.247-30.016h-47.5c-18.776,0-35.081,12.729-39.786,30.016c-0.75,2.33-0.929,3.568-0.929,5.609
		v67.857c0,6.557,5.315,11.875,11.875,11.875c6.561,0,11.875-5.318,11.875-11.875v-59.375h6.786v164.554
		c0,8.433,6.835,15.268,15.268,15.268s15.268-6.835,15.268-15.268v-89.911h6.786v89.911c0,8.433,6.835,15.268,15.268,15.268
		c8.433,0,15.268-6.835,15.268-15.268V122.179h6.786v59.375c0,6.557,5.314,11.875,11.875,11.875S158,188.11,158,181.554v-67.857
		C158,111.655,157.437,109.767,156.532,108.087z"/>
</g>
<g>
	<path fill="#FFFFFF" d="M93.536,71.286c14.99,0,27.143-12.154,27.143-27.143c0-14.99-12.153-27.143-27.143-27.143
		c-14.989,0-27.143,12.153-27.143,27.143C66.393,59.132,78.546,71.286,93.536,71.286z M156.532,108.087
		c-4.705-17.286-20.47-30.016-39.247-30.016h-47.5c-18.776,0-35.081,12.729-39.786,30.016c-0.75,2.33-0.929,3.568-0.929,5.609
		v67.857c0,6.557,5.315,11.875,11.875,11.875c6.561,0,11.875-5.318,11.875-11.875v-59.375h6.786v164.554
		c0,8.433,6.835,15.268,15.268,15.268s15.268-6.835,15.268-15.268v-89.911h6.786v89.911c0,8.433,6.835,15.268,15.268,15.268
		c8.433,0,15.268-6.835,15.268-15.268V122.179h6.786v59.375c0,6.557,5.314,11.875,11.875,11.875S158,188.11,158,181.554v-67.857
		C158,111.655,157.437,109.767,156.532,108.087z"/>
</g>
<path fill="#414042" d="M165.639,112.452l-5.179,11.12c11.902,9.188,12.539,13.723,12.566,14.269
	c-0.461,0.528-3.312,2.124-11.161,2.124c-15.94,0-40.826-6.11-66.569-16.343c-20.27-8.059-38.459-17.626-51.217-26.94
	C29.783,86.243,29.064,81.134,29.035,80.553c0.461-0.528,3.313-2.124,11.162-2.124c2.11,0,4.388,0.114,6.793,0.324l12.724-10.357
	c-7.269-1.281-13.88-1.967-19.517-1.967c-12.26,0-19.774,3.265-22.334,9.704c-3.372,8.482,2.889,18.373,19.142,30.239
	c13.55,9.893,32.677,19.979,53.859,28.399c27.08,10.766,53.623,17.193,71.002,17.193c12.26,0,19.774-3.265,22.333-9.704
	C187.53,133.882,181.454,124.126,165.639,112.452z"/>
<g>
	<path fill="#FFFFFF" d="M161.865,148.964c-17.02,0-43.148-6.348-69.894-16.98c-20.954-8.33-39.847-18.286-53.199-28.035
		C23.992,93.158,17.894,84.172,20.649,77.241c2.061-5.184,8.637-7.812,19.547-7.812c17.021,0,43.149,6.348,69.894,16.98
		c20.954,8.33,39.847,18.287,53.199,28.035c14.781,10.792,20.878,19.777,18.123,26.708
		C179.351,146.336,172.774,148.964,161.865,148.964z M40.196,75.429c-7.746,0-12.969,1.506-13.972,4.029
		c-1.123,2.825,2.416,9.665,16.086,19.646c12.956,9.459,31.379,19.156,51.877,27.305c26.077,10.366,51.376,16.556,67.677,16.556
		c7.745,0,12.968-1.506,13.971-4.029c1.123-2.825-2.416-9.665-16.085-19.646c-12.956-9.458-31.379-19.156-51.877-27.305
		C81.797,81.618,56.497,75.429,40.196,75.429z"/>
</g>
<path fill="#414042" d="M81.895,68.667h-5.854c4.716,3.374,10.439,5.421,16.625,5.598v-3C88.821,71.143,85.177,70.227,81.895,68.667
	z M55.333,77.463v3.226c4.52-1.688,9.395-2.618,14.452-2.618h22.881v-3H69.786C64.761,75.071,59.892,75.91,55.333,77.463z"/>
<g>
	<polygon fill="#CE1141" points="166.233,91.728 116.96,104.93 91.454,149.108 104.657,198.38 215.868,262.588 277.443,155.935 	"/>
	<g>
		<circle fill="#FFFFFF" cx="131.2" cy="142.604" r="15.747"/>
	</g>
	<circle fill="#414042" cx="131.2" cy="142.603" r="9.856"/>
</g>
<path fill="#FFFFFF" d="M136.606,145.725c1.106-1.916,1.077-4.172,0.128-6c-12.376-2.705-26.398-7.017-40.734-12.616v6.443
	c14.257,5.451,28.189,9.626,40.55,12.253C136.567,145.776,136.589,145.753,136.606,145.725z"/>
<g>
	<g>
		<g>
			<path fill="#FFFFFF" d="M203.07,32.525l40.815,86.748v32.874h-6.494L183.351,38.199c-1.121-2.371-2.108-4.221-3.032-5.673H203.07
				 M259.737,22.525H238.84c-2.173,0-3.747,0.427-4.721,1.279c-0.977,0.853-1.464,2.199-1.464,4.04c0,1.228,0.222,2.234,0.668,3.017
				c0.447,0.785,1.254,1.519,2.424,2.2c3.454,2.183,5.866,4.792,7.231,7.825c1.363,3.034,2.047,7.416,2.047,13.144v28.333
				l8.86,18.31V54.03c0-4.773,0.528-8.557,1.589-11.354c1.504-3.818,3.732-6.648,6.687-8.49c2.006-1.228,3.271-2.199,3.802-2.915
				c0.53-0.716,0.796-1.79,0.796-3.222c0-1.499-0.476-2.795-1.421-3.887C264.444,23.072,262.579,22.525,259.737,22.525
				L259.737,22.525z M209.417,22.525h-36.612c-4.18,0-6.742,0.24-7.69,0.716c-0.836,0.409-1.504,1.109-2.006,2.097
				c-0.502,0.989-0.752,2.063-0.752,3.222c0,1.092,0.25,2.081,0.752,2.966c0.501,0.887,1.17,1.501,2.006,1.841l3.176,1.432
				c1.226,0.479,2.229,1.228,3.009,2.251c0.781,1.022,1.784,2.83,3.009,5.421l56.757,119.675h22.819v-45.109L209.417,22.525
				L209.417,22.525z M174.393,58.428v72.828c0,9.548-2.675,16.129-8.024,19.742c-1.784,1.227-2.94,2.197-3.468,2.916
				c-0.53,0.713-0.795,1.687-0.795,2.914c0,3.545,2.534,5.32,7.606,5.32h19.309c2.787,0,4.625-0.442,5.517-1.33
				c1.058-1.022,1.588-2.317,1.588-3.888c0-2.045-0.726-3.58-2.173-4.603l-2.508-1.739c-2.842-1.977-4.92-4.501-6.229-7.569
				c-1.309-3.069-1.963-6.991-1.963-11.763V76.43L174.393,58.428L174.393,58.428z"/>
		</g>
		<g>
			<path fill="#FFFFFF" d="M344.763,36.509c2.017,1.641,3.976,3.592,5.859,5.837c9.767,11.659,14.719,28.529,14.719,50.143
				c0,21.175-4.72,37.657-14.043,49.009c-2.135,2.611-4.404,4.839-6.824,6.689c0.835-3.297,1.246-7.144,1.246-11.612V45.13
				C345.72,41.905,345.404,39.051,344.763,36.509 M304.132,36.546c-0.602,2.518-0.897,5.364-0.897,8.583v91.445
				c0,4.521,0.338,8.276,1.041,11.419c-2.348-1.817-4.555-3.986-6.635-6.516c-9.308-11.332-14.027-27.814-14.027-48.989
				c0-10.839,1.307-20.696,3.886-29.301c2.46-8.216,6.099-15.221,10.826-20.835C300.198,40.121,302.14,38.18,304.132,36.546
				 M327.862,19.764V30.81c1.727,0.751,3.052,1.535,3.969,2.354c0.922,0.818,1.715,1.943,2.384,3.375
				c1.003,2.115,1.505,4.979,1.505,8.591v91.445c0,5.661-0.753,9.887-2.257,12.684c-0.669,1.227-1.407,2.166-2.215,2.813
				c-0.81,0.65-1.939,1.175-3.386,1.585v11.25c12.426-1.161,22.819-6.853,31.179-17.083c10.866-13.229,16.3-31.672,16.3-55.336
				c0-24.14-5.685-42.994-17.053-56.564c-4.291-5.115-8.933-9.001-13.919-11.661C339.383,21.605,333.881,20.105,327.862,19.764
				L327.862,19.764z M321.008,19.764c-6.019,0.342-11.507,1.841-16.468,4.5c-4.96,2.66-9.583,6.546-13.875,11.661
				c-5.629,6.684-9.878,14.815-12.746,24.395c-2.871,9.582-4.306,20.304-4.306,32.169c0,23.664,5.434,42.107,16.3,55.336
				c8.358,10.162,18.724,15.856,31.095,17.083v-11.25c-2.787-0.887-4.71-2.354-5.768-4.398c-1.337-2.456-2.006-6.684-2.006-12.684
				V45.13c0-4.09,0.585-7.193,1.755-9.308c1.17-2.113,3.176-3.785,6.019-5.012V19.764L321.008,19.764z"/>
		</g>
		<g>
			<path fill="#FFFFFF" d="M438.062,32.525v110.186c0,3.75,0.612,6.862,1.864,9.436h-20.843c1.253-2.574,1.865-5.686,1.865-9.436
				V32.525H438.062 M476.984,22.525H455v12.377c2.562,1.841,4.598,4.194,6.102,7.058c2.396,4.638,4.013,10.126,4.849,16.468
				l0.836,6.24c0.277,1.979,0.877,3.531,1.799,4.653c0.917,1.127,2.073,1.688,3.468,1.688c1.446,0,2.632-0.613,3.554-1.84
				c0.916-1.228,1.378-2.829,1.378-4.808V22.525L476.984,22.525z M448.062,22.525h-37.113v120.186c0,2.66-0.418,4.568-1.254,5.729
				c-0.392,0.681-0.781,1.107-1.17,1.276c-0.392,0.174-1.672,0.601-3.846,1.281c-2.675,0.75-4.013,2.625-4.013,5.625
				c0,1.841,0.627,3.224,1.883,4.141c1.251,0.924,3.104,1.383,5.558,1.383h2.759h37.28h2.758c2.508,0,4.29-0.409,5.35-1.228
				c1.448-1.09,2.174-2.521,2.174-4.296c0-3.001-1.338-4.875-4.013-5.625c-2.173-0.68-3.455-1.107-3.846-1.281
				c-0.392-0.168-0.81-0.595-1.254-1.276c-0.835-1.161-1.253-3.069-1.253-5.729V22.525L448.062,22.525z M404.178,22.525h-21.983
				V64.36c0,1.979,0.459,3.58,1.381,4.808c0.917,1.227,2.102,1.84,3.552,1.84c1.392,0,2.548-0.561,3.47-1.688
				c0.916-1.122,1.517-2.674,1.796-4.653l0.836-6.24c0.836-6.341,2.45-11.83,4.849-16.468c1.446-2.864,3.481-5.216,6.101-7.058
				V22.525L404.178,22.525z"/>
		</g>
	</g>
	<g>
		<g>
			<path fill="#FFFFFF" d="M238.703,190.19v3.201c-1.075-1.157-2.195-2.226-3.358-3.201H238.703 M197.662,190.19v110.187
				c0,3.748,0.612,6.859,1.864,9.433h-20.509c1.028-2.382,1.531-5.222,1.531-8.614V198.805c0-3.393-0.503-6.232-1.531-8.614H197.662
				 M248.703,180.19h-33.686v11.966c3.845,0.546,7.131,1.535,9.863,2.967c2.73,1.432,5.237,3.513,7.523,6.238
				c1.672,1.98,3.176,4.363,4.514,7.162c1.337,2.797,2.424,5.865,3.26,9.205c0.446,1.705,0.988,2.915,1.631,3.633
				c0.641,0.712,1.517,1.072,2.632,1.072c1.505,0,2.591-0.512,3.26-1.535c0.669-1.022,1.003-2.694,1.003-5.012V180.19
				L248.703,180.19z M207.662,180.19h-37.197h-2.173c-2.006,0-3.551,0.46-4.64,1.378c-1.084,0.923-1.628,2.236-1.628,3.939
				c0,2.797,1.112,4.638,3.343,5.524c1.839,0.751,2.911,1.21,3.219,1.38c0.306,0.172,0.625,0.564,0.96,1.177
				c0.669,1.09,1.003,2.833,1.003,5.216v102.391c0,2.386-0.334,4.126-1.003,5.216c-0.334,0.613-0.654,1.005-0.96,1.175
				c-0.308,0.172-1.38,0.631-3.219,1.383c-2.231,0.886-3.343,2.727-3.343,5.523c0,1.703,0.544,3.019,1.628,3.937
				c1.089,0.922,2.634,1.381,4.64,1.381h2.173h37.281h2.842c2.453,0,4.206-0.408,5.267-1.227c1.447-1.09,2.173-2.521,2.173-4.295
				c0-3.003-1.337-4.875-4.012-5.626c-2.173-0.682-3.456-1.109-3.845-1.28c-0.392-0.17-0.807-0.597-1.254-1.277
				c-0.836-1.161-1.254-3.069-1.254-5.728V180.19L207.662,180.19z M230.063,220.695c-1.337,0-2.369,0.497-3.092,1.484
				c-0.724,0.988-1.312,2.778-1.755,5.369c-0.726,3.819-1.854,6.835-3.387,9.05c-1.533,2.218-3.941,4.281-7.229,6.189v11.866
				c2.787,0.819,5.042,2.489,6.771,5.011c1.727,2.523,3.093,6.138,4.096,10.844c0.447,2.25,1.03,3.854,1.756,4.807
				c0.723,0.957,1.726,1.433,3.009,1.433c1.56,0,2.632-0.613,3.219-1.842c0.583-1.227,0.876-3.443,0.876-6.647v-38.972
				c0-3.135-0.196-5.149-0.585-6.035C233.073,221.548,231.845,220.695,230.063,220.695L230.063,220.695z"/>
		</g>
		<g>
			<path fill="#FFFFFF" d="M326.707,194.172c2.017,1.641,3.976,3.592,5.86,5.839c9.766,11.656,14.718,28.526,14.718,50.142
				c0,21.174-4.72,37.657-14.043,49.009c-2.135,2.612-4.404,4.839-6.825,6.689c0.836-3.297,1.247-7.144,1.247-11.612v-91.444
				C327.664,199.569,327.349,196.715,326.707,194.172 M286.077,194.21c-0.603,2.518-0.898,5.365-0.898,8.585v91.444
				c0,4.522,0.338,8.276,1.041,11.419c-2.348-1.816-4.555-3.985-6.635-6.515c-9.308-11.333-14.027-27.816-14.027-48.99
				c0-10.835,1.308-20.693,3.886-29.301c2.461-8.217,6.1-15.222,10.828-20.836C282.145,197.784,284.085,195.844,286.077,194.21
				 M309.807,177.428v11.046c1.727,0.751,3.053,1.535,3.97,2.352c0.921,0.819,1.715,1.945,2.383,3.376
				c1.003,2.114,1.505,4.978,1.505,8.593v91.444c0,5.661-0.753,9.887-2.257,12.683c-0.668,1.228-1.406,2.166-2.214,2.814
				c-0.81,0.649-1.939,1.176-3.387,1.584v11.252c12.426-1.161,22.82-6.854,31.179-17.082c10.866-13.23,16.3-31.674,16.3-55.337
				c0-24.14-5.684-42.995-17.053-56.564c-4.291-5.115-8.932-9.001-13.918-11.661C321.328,179.269,315.825,177.769,309.807,177.428
				L309.807,177.428z M302.953,177.428c-6.019,0.341-11.507,1.841-16.468,4.5c-4.96,2.66-9.584,6.546-13.875,11.661
				c-5.63,6.684-9.878,14.814-12.747,24.394c-2.87,9.583-4.306,20.305-4.306,32.17c0,23.663,5.434,42.106,16.3,55.337
				c8.358,10.162,18.725,15.854,31.096,17.082V311.32c-2.788-0.884-4.711-2.352-5.769-4.398c-1.337-2.455-2.006-6.684-2.006-12.683
				v-91.444c0-4.092,0.585-7.193,1.756-9.309c1.17-2.112,3.176-3.784,6.019-5.012V177.428L302.953,177.428z"/>
		</g>
		<g>
			<path fill="#FFFFFF" d="M403.206,190.19v63.511l-2.185,0.793l2.185,0.408v45.475c0,3.748,0.612,6.859,1.864,9.433h-20.509
				c1.028-2.382,1.531-5.222,1.531-8.614V198.805c0-3.393-0.503-6.232-1.531-8.614H403.206 M435.386,190.796
				c0.393,0.042,0.777,0.087,1.153,0.134l0.043,0.005l0.044,0.005c4.446,0.517,8.333,2.274,11.898,5.388
				c5.053,4.392,7.51,10.79,7.51,19.559c0,7.346-1.69,13.034-5.179,17.4c-1.314,1.65-2.789,2.948-4.514,3.971
				c-1.225,0.727-3.494,1.877-7.605,3.487c0.352-2.063,0.519-4.493,0.519-7.469V206.17c0-6.317-1.193-11.236-3.65-15.042
				C435.532,191.016,435.46,190.906,435.386,190.796 M437.419,261.284c5.249,0.997,8.006,1.898,9.397,2.484
				c1.748,0.735,3.283,1.698,4.691,2.94c1.248,1.134,2.187,2.461,2.864,4.042c0.725,1.699,1.077,3.46,1.077,5.384v21.173
				c0,6.388,2.99,10.34,6.727,12.134c-1.158,1.073-2.319,1.816-3.535,2.266c-1.555,0.574-3.567,0.865-5.98,0.865
				c-5.524,0-7.934-2.123-9.414-3.972c-2.648-3.307-3.991-8.448-3.991-15.282v-17.184c0-5.699-0.062-6.856-0.125-7.553l-0.005-0.056
				l-0.006-0.056C438.858,265.911,438.289,263.509,437.419,261.284 M421.983,180.19h-2.174v11.353
				c3.565,1.228,6.03,2.898,7.396,5.012c1.366,2.116,2.049,5.318,2.049,9.614v27.106c0,3.068-0.21,5.386-0.626,6.955
				c-0.42,1.57-1.187,2.966-2.3,4.194c-1.282,1.366-3.427,2.321-6.436,2.864v10.944c3.009,0.409,5.32,1.81,6.938,4.194
				c1.28,1.979,2.062,4.332,2.34,7.059c0.056,0.613,0.084,2.831,0.084,6.648v17.184c0,9.205,2.061,16.383,6.186,21.533
				c4.122,5.146,9.864,7.721,17.22,7.721c3.62,0,6.771-0.497,9.444-1.484c2.676-0.988,5.154-2.607,7.44-4.858
				c2.45-2.385,4.499-5.097,6.143-8.129c1.643-3.034,2.467-5.61,2.467-7.724c0-1.227-0.476-2.456-1.421-3.683
				c-0.948-1.229-1.896-1.842-2.843-1.842c-1.449,0-2.87,1.161-4.262,3.479c-0.56,0.885-0.992,1.481-1.298,1.791
				c-0.305,0.304-0.683,0.459-1.127,0.459c-1.17,0-1.755-1.092-1.755-3.273v-21.173c0-3.273-0.629-6.377-1.88-9.309
				c-1.256-2.931-3.053-5.457-5.393-7.569c-2.23-1.978-4.725-3.545-7.48-4.705c-2.76-1.161-6.703-2.215-11.829-3.171
				c5.627-2.045,9.823-3.888,12.579-5.523c2.762-1.637,5.169-3.75,7.232-6.341c4.902-6.137,7.355-14.015,7.355-23.629
				c0-11.729-3.652-20.764-10.95-27.106c-5.073-4.43-10.84-7.021-17.304-7.773C433.435,180.464,428.168,180.19,421.983,180.19
				L421.983,180.19z M413.206,180.19h-37.197h-2.173c-2.006,0-3.554,0.46-4.638,1.378c-1.09,0.923-1.632,2.236-1.632,3.939
				c0,2.797,1.116,4.638,3.344,5.524c1.839,0.751,2.911,1.21,3.217,1.38c0.306,0.172,0.629,0.564,0.963,1.177
				c0.668,1.09,1.003,2.833,1.003,5.216v102.391c0,2.386-0.335,4.126-1.003,5.216c-0.334,0.613-0.657,1.005-0.963,1.175
				c-0.306,0.172-1.378,0.631-3.217,1.383c-2.228,0.886-3.344,2.727-3.344,5.523c0,1.703,0.542,3.019,1.632,3.937
				c1.084,0.922,2.632,1.381,4.638,1.381h2.173h37.28h2.843c2.45,0,4.206-0.408,5.266-1.227c1.448-1.09,2.174-2.521,2.174-4.295
				c0-3.003-1.338-4.875-4.013-5.626c-2.173-0.682-3.455-1.109-3.845-1.28c-0.392-0.17-0.81-0.597-1.254-1.277
				c-0.836-1.161-1.254-3.069-1.254-5.728V180.19L413.206,180.19z"/>
		</g>
	</g>
	<g>
		<path fill="#FFFFFF" d="M112.625,353.813c-0.649,2.299-0.976,4.757-0.976,7.362c0,5.204,1.225,9.922,3.636,14.014
			c2.251,3.831,5.732,7.368,10.346,10.512l0.029,0.021l0.03,0.02c1.674,1.123,5.229,3.331,16.72,9.507l0.024,0.013l0.025,0.014
			c4.479,2.374,7.91,4.482,10.199,6.264c2.069,1.612,4.095,3.705,6.023,6.222l0.021,0.028l0.022,0.028
			c5.221,6.717,7.758,14.579,7.758,24.038c0,7.32-1.418,13.78-4.334,19.75c-1.409,2.884-3.043,5.415-4.929,7.624
			c0.506-2.185,0.76-4.526,0.76-7.019c0-7.117-2.699-13.687-7.805-19l-0.055-0.057l-0.056-0.056
			c-3.003-3.027-7.796-6.256-15.072-10.154c-6.641-3.567-11.203-6.115-13.558-7.571c-2.01-1.243-3.986-2.738-5.874-4.442
			l-0.063-0.057l-0.064-0.056c-8.269-7.212-12.288-16.692-12.288-28.98c0-6.467,1.083-12.467,3.219-17.832
			C108.007,359.88,110.068,356.521,112.625,353.813 M103.145,460.316c0.523,0.826,1.059,1.632,1.607,2.415
			c-0.55,0.048-1.086,0.123-1.607,0.225V460.316 M132.265,335.092c-9.642,0.613-17.721,3.717-24.241,9.308
			c-4.681,4.025-8.33,9.326-10.95,15.905c-2.62,6.581-3.929,13.757-3.929,21.532c0,15.208,5.238,27.378,15.715,36.517
			c2.34,2.112,4.776,3.953,7.313,5.522c2.536,1.568,7.231,4.194,14.086,7.877c6.24,3.343,10.475,6.138,12.706,8.387
			c3.343,3.479,5.015,7.502,5.015,12.07c0,4.366-1.075,7.825-3.22,10.38c-2.145,2.56-5.641,4.554-10.489,5.985v11.661
			c3.454,0,7.174-0.631,11.158-1.894c3.983-1.259,7.649-2.981,10.993-5.165c6.241-4.157,11.146-9.886,14.712-17.184
			c3.565-7.297,5.35-15.343,5.35-24.14c0-11.66-3.289-21.717-9.863-30.175c-2.453-3.203-5.056-5.88-7.817-8.03
			c-2.756-2.146-6.644-4.551-11.659-7.21c-8.25-4.434-13.542-7.432-15.882-9.002c-3.401-2.317-5.851-4.754-7.356-7.314
			c-1.505-2.555-2.257-5.537-2.257-8.947c0-3.546,0.905-6.529,2.715-8.949c1.811-2.421,4.445-4.211,7.9-5.372V335.092
			L132.265,335.092z M138.868,335.603v11.252c6.073,1.774,11.117,5.421,15.129,10.945c2.006,2.797,3.762,5.969,5.266,9.513
			c1.505,3.547,2.562,6.989,3.176,10.329c0.279,1.843,0.571,3.154,0.877,3.938c0.306,0.786,0.711,1.45,1.213,1.995
			c0.946,0.886,1.978,1.329,3.093,1.329c1.449,0,2.634-0.631,3.551-1.892c0.922-1.261,1.381-2.879,1.381-4.859v-33.754
			c0-2.863-0.349-4.962-1.046-6.289c-0.697-1.332-1.796-1.996-3.301-1.996c-1.282,0-2.369,0.75-3.26,2.251l-1.839,2.965
			c-0.502,0.889-1.283,1.331-2.34,1.331c-0.724,0-1.646-0.272-2.759-0.818c-4.514-2.318-7.996-3.87-10.448-4.655
			C145.108,336.403,142.212,335.878,138.868,335.603L138.868,335.603z M98.073,425.916c-0.081,0-0.164,0.002-0.247,0.007
			c-1.337,0.066-2.453,0.768-3.343,2.094c-0.894,1.334-1.338,2.953-1.338,4.86v37.232c0,5.866,1.56,8.798,4.681,8.798
			c1.17,0,2.257-0.752,3.26-2.251c1.225-1.774,2.118-2.879,2.674-3.322c0.557-0.445,1.393-0.668,2.508-0.668
			c0.724,0,1.476,0.171,2.257,0.512c0.778,0.342,2.202,1.091,4.263,2.251c5.517,3.206,10.559,4.808,15.129,4.808v-11.661
			c-4.292-1.022-8.082-3.375-11.368-7.058c-3.233-3.544-6.061-7.876-8.483-12.99c-2.427-5.114-4.28-10.602-5.56-16.468
			c-0.501-2.317-1.101-3.938-1.796-4.861C100.061,426.345,99.181,425.916,98.073,425.916L98.073,425.916z"/>
	</g>
	<g>
		<path fill="#FFFFFF" d="M248.56,347.854l21.671,112.084l0.016,0.079l0.017,0.079c0.524,2.495,1.139,4.783,1.826,6.799l0.065,0.189
			l0.072,0.188c0.025,0.067,0.053,0.135,0.08,0.203H250.5c0.785-1.928,1.182-4.062,1.182-6.366c0-1.774-0.135-3.367-0.413-4.868
			l-2.67-14.807l-1.483-8.225h-0.127l-0.738-3.99l-15.022-81.227l0.029-0.139H248.56 M256.812,337.854h-33.686l-2.09,10.023
			l15.38,83.16h-18.724l-2.256,12.172h23.321l2.675,14.83c0.166,0.888,0.25,1.91,0.25,3.069c0,1.229-0.222,2.251-0.668,3.069
			c-0.447,0.817-1.225,1.569-2.341,2.251c-1.56,1.022-2.562,1.875-3.009,2.558s-0.668,1.705-0.668,3.067
			c0,1.636,0.501,2.951,1.504,3.938c1.003,0.988,2.34,1.482,4.012,1.482h41.711c4.347,0,6.521-1.773,6.521-5.319
			c0-1.295-0.28-2.318-0.836-3.068c-0.56-0.751-1.562-1.499-3.01-2.25c-1.729-0.819-2.843-1.875-3.344-3.171
			c-0.559-1.638-1.061-3.513-1.505-5.627L256.812,337.854L256.812,337.854z M217.358,363.834l-18.891,84.284
			c-1.003,4.638-2.286,8.354-3.845,11.149c-1.003,1.704-2.049,3.054-3.133,4.041c-1.089,0.99-2.775,2.096-5.059,3.324
			c-2.452,1.293-3.678,2.931-3.678,4.909c0,1.841,0.597,3.291,1.796,4.345c1.199,1.059,2.828,1.588,4.892,1.588h21.231
			c4.068,0,6.102-1.704,6.102-5.114c0-2.388-0.919-4.091-2.758-5.114l-2.926-1.636c-3.288-1.842-4.932-4.911-4.932-9.206
			c0-1.637,0.222-3.411,0.669-5.319l14.795-66.076L217.358,363.834L217.358,363.834z"/>
	</g>
	<g>
		<path fill="#FFFFFF" d="M333.063,347.854c-1.228,2.58-1.828,5.656-1.828,9.331v110.29h-18.644
			c1.028-2.382,1.531-5.223,1.531-8.616v-102.39c0-3.394-0.503-6.233-1.531-8.615H333.063 M369.938,463.352v4.123h-3.523
			C367.651,466.239,368.822,464.869,369.938,463.352 M344.161,337.854h-2.842h-37.28h-2.173c-2.006,0-3.552,0.462-4.641,1.38
			c-1.084,0.924-1.629,2.235-1.629,3.938c0,2.798,1.113,4.64,3.344,5.523c1.839,0.752,2.911,1.211,3.219,1.38
			c0.307,0.173,0.627,0.564,0.961,1.178c0.668,1.09,1.003,2.831,1.003,5.216v102.39c0,2.387-0.335,4.127-1.003,5.217
			c-0.334,0.613-0.654,1.005-0.961,1.175c-0.308,0.172-1.38,0.631-3.219,1.383c-2.23,0.886-3.344,2.726-3.344,5.522
			c0,1.704,0.545,3.019,1.629,3.938c1.089,0.922,2.635,1.382,4.641,1.382h2.173h37.196v-120.29c0-2.592,0.418-4.5,1.254-5.728
			c0.447-0.613,0.862-1.022,1.254-1.227c0.391-0.204,1.673-0.613,3.846-1.229c2.675-0.75,4.013-2.624,4.013-5.625
			c0-1.771-0.727-3.203-2.174-4.296C348.368,338.263,346.614,337.854,344.161,337.854L344.161,337.854z M376.009,428.992
			c-1.449,0-2.551,0.598-3.3,1.789c-0.755,1.193-1.577,3.666-2.468,7.416c-1.225,4.842-2.815,9.24-4.765,13.194
			c-1.951,3.956-4.096,7.059-6.436,9.308c-1.45,1.432-2.97,2.521-4.555,3.273c-1.591,0.752-3.75,1.432-6.479,2.045v11.457h31.931
			v-41.631c0-2.249-0.167-3.75-0.502-4.501C378.713,429.776,377.568,428.992,376.009,428.992L376.009,428.992z"/>
	</g>
	<g>
		<path fill="#FFFFFF" d="M463.557,347.854v3.083c-0.21-0.225-0.423-0.446-0.637-0.664c-0.844-0.856-1.723-1.663-2.638-2.419
			H463.557 M422.432,347.854v119.621h-18.645c1.028-2.382,1.531-5.223,1.531-8.616v-102.39c0-3.394-0.503-6.233-1.531-8.615H422.432
			 M464.727,463.304v4.171h-4.114c0.919-0.82,1.828-1.705,2.726-2.65C463.814,464.322,464.278,463.815,464.727,463.304
			 M473.557,337.854H439.87v11.968c6.521,0.818,11.83,3.308,15.923,7.466c4.099,4.162,7.203,10.194,9.321,18.105
			c0.502,1.908,1.029,3.171,1.589,3.784c0.556,0.614,1.447,0.921,2.675,0.921c1.447,0,2.507-0.477,3.176-1.432
			c0.669-0.956,1.003-2.487,1.003-4.604V337.854L473.557,337.854z M432.432,337.854h-37.197h-2.173c-2.007,0-3.554,0.462-4.639,1.38
			c-1.089,0.924-1.631,2.235-1.631,3.938c0,2.798,1.115,4.64,3.343,5.523c1.84,0.752,2.912,1.211,3.218,1.38
			c0.306,0.173,0.628,0.564,0.963,1.178c0.668,1.09,1.003,2.831,1.003,5.216v102.39c0,2.387-0.335,4.127-1.003,5.217
			c-0.335,0.613-0.657,1.005-0.963,1.175c-0.306,0.172-1.378,0.631-3.218,1.383c-2.228,0.886-3.343,2.726-3.343,5.522
			c0,1.704,0.542,3.019,1.631,3.938c1.085,0.922,2.632,1.382,4.639,1.382h2.173h37.197V337.854L432.432,337.854z M454.917,378.359
			c-1.338,0-2.369,0.497-3.093,1.483c-0.727,0.989-1.312,2.776-1.756,5.368c-0.727,3.75-1.867,6.752-3.427,9.003
			c-1.562,2.25-3.958,4.33-7.189,6.238v11.865c2.785,0.818,5.06,2.49,6.812,5.012c1.757,2.523,3.106,6.139,4.055,10.844
			c0.444,2.25,1.029,3.855,1.755,4.807c0.725,0.956,1.728,1.433,3.01,1.433c1.56,0,2.634-0.614,3.217-1.842
			c0.587-1.228,0.879-3.443,0.879-6.647v-38.972c0-3.137-0.196-5.15-0.585-6.035C457.926,379.212,456.698,378.359,454.917,378.359
			L454.917,378.359z M470.548,433.798c-1.17,0-2.09,0.392-2.759,1.175c-0.668,0.786-1.311,2.268-1.922,4.452
			c-1.282,4.433-2.632,7.995-4.056,10.687c-1.419,2.694-3.329,5.305-5.725,7.827c-2.397,2.524-4.779,4.398-7.147,5.625
			c-2.37,1.228-5.364,2.184-8.985,2.865v11.046h34.772v-36.107c0-2.794-0.308-4.758-0.919-5.88
			C473.194,434.359,472.107,433.798,470.548,433.798L470.548,433.798z"/>
	</g>
</g>
<rect x="397.812" y="244.312" fill="#7C42BA" width="5.312" height="13.125"/>
<rect x="232.5" y="187.5" fill="#FFFFFF" width="10.5" height="8"/>
<rect x="459" y="344" fill="#FFFFFF" width="7.5" height="11.5"/>
<rect x="460" y="462.5" fill="#FFFFFF" width="8" height="10"/>
<rect x="366" y="462" fill="#FFFFFF" width="7.5" height="10.5"/>
<rect x="99.5" y="457.5" fill="#FFFFFF" width="6.5" height="10"/>
</svg>
